<svg width="49" height="48" viewBox="0 0 49 48" fill="none" xmlns="http://www.w3.org/2000/svg">
<rect x="0.601318" width="48" height="48" rx="2" fill="#1F212E"/>
<path d="M24.6013 4.5C22.0405 4.5 19.5048 5.00438 17.139 5.98435C14.7731 6.96432 12.6235 8.40067 10.8127 10.2114C9.00199 12.0222 7.56563 14.1718 6.58567 16.5377C5.6057 18.9035 5.10132 21.4392 5.10132 24C5.10132 26.5608 5.6057 29.0965 6.58567 31.4623C7.56563 33.8282 9.00199 35.9778 10.8127 37.7886C12.6235 39.5993 14.7731 41.0357 17.139 42.0157C19.5048 42.9956 22.0405 43.5 24.6013 43.5C27.1621 43.5 29.6978 42.9956 32.0636 42.0157C34.4295 41.0357 36.5792 39.5993 38.3899 37.7886C40.2006 35.9778 41.637 33.8282 42.617 31.4623C43.5969 29.0965 44.1013 26.5608 44.1013 24C44.1 21.5122 43.6226 19.0477 42.6949 16.7394C43.1846 18.3003 43.4346 19.9265 43.4366 21.5625C43.4365 25.8527 41.7323 29.9671 38.6986 33.0007C35.665 36.0343 31.5506 37.7386 27.2604 37.7385C22.9702 37.7385 18.8558 36.0343 15.8222 33.0007C12.7886 29.9671 11.0843 25.8526 11.0843 21.5625C11.0843 17.2723 12.7886 13.1579 15.8222 10.1242C18.8558 7.09062 22.9702 5.38634 27.2604 5.38632C29.3479 5.38723 31.4154 5.79216 33.349 6.57878C30.6349 5.21389 27.6393 4.50204 24.6013 4.5Z" fill="#FBFBFB"/>
<path d="M34.9984 32.2072C36.2516 31.3221 37.3726 30.2631 38.3275 29.0622C36.4222 27.5306 25.737 22.0242 25.8279 19.5869C25.9427 16.5062 32.918 16.2965 32.918 16.2965C32.6934 12.7436 25.9845 13.0843 25.9845 13.0843C25.3604 12.7936 25.5833 11.9337 22.2241 11.8308C13.2234 11.5552 12.8402 24.3949 13.6062 25.5411C13.9506 26.0565 15.0804 11.5984 23.4776 13.476C24.4935 13.7032 26.8463 14.5729 26.8463 14.5729C26.6533 14.4993 24.3828 15.8481 25.0444 15.6305C29.1842 14.2692 31.7391 15.7205 31.3903 15.748C20.9819 16.5695 24.9739 21.8926 24.5352 21.7805C24.5352 21.7805 19.5952 21.5515 21.989 25.6977C22.0312 25.7708 22.2241 24.4834 22.2241 24.4834C23.0492 27.0678 29.9817 32.4235 34.9984 32.2072Z" fill="#FBFBFB"/>
<path d="M23.2621 13.9265C23.5926 13.9417 24.0131 14.1517 24.026 14.4749C24.0389 14.7981 23.2621 15.1213 23.2621 15.1213C23.2621 15.1213 22.3414 14.8282 22.3612 14.4553C22.3796 14.1076 22.9316 13.9113 23.2621 13.9265Z" fill="#FBFBFB"/>
<path d="M29.9806 34.5323C30.9518 34.2752 31.8969 33.9281 32.8037 33.4957C31.3856 32.4539 23.3132 30.0106 23.3132 30.0106C23.3132 30.0106 26.4767 33.5298 29.9806 34.5323Z" fill="#FBFBFB"/>
</svg>
