<svg width="73" height="72" viewBox="0 0 73 72" fill="none" xmlns="http://www.w3.org/2000/svg">
<g clip-path="url(#clip0_327_457)">
<path d="M36.5 0C31.7724 -2.58047e-07 27.0911 0.931166 22.7234 2.74033C18.3557 4.5495 14.387 7.20124 11.0441 10.5442C7.70123 13.8871 5.04949 17.8557 3.24032 22.2234C1.43115 26.5911 0.499984 31.2724 0.499985 36C0.499985 40.7276 1.43115 45.4089 3.24032 49.7766C5.04949 54.1443 7.70123 58.1129 11.0441 61.4558C14.387 64.7987 18.3557 67.4505 22.7234 69.2597C27.0911 71.0688 31.7724 72 36.5 72C41.2276 72 45.9089 71.0688 50.2766 69.2597C54.6443 67.4505 58.6129 64.7987 61.9558 61.4558C65.2987 58.1129 67.9505 54.1443 69.7597 49.7766C71.5688 45.4089 72.5 40.7276 72.5 36C72.4975 31.4072 71.6161 26.8573 69.9035 22.5958C70.8075 25.4775 71.2692 28.4797 71.2727 31.5C71.2727 39.4203 68.1263 47.0162 62.5258 52.6167C56.9253 58.2172 49.3293 61.3635 41.409 61.3635C33.4887 61.3634 25.8929 58.2171 20.2924 52.6166C14.6919 47.0161 11.5456 39.4202 11.5455 31.5C11.5455 23.5797 14.6918 15.9837 20.2923 10.3832C25.8928 4.78268 33.4887 1.63632 41.409 1.63628C45.2628 1.63796 49.0798 2.38553 52.6495 3.83775C47.6388 1.31795 42.1086 0.00376979 36.5 0Z" fill="#FBFBFB"/>
<path d="M55.6949 51.1518C58.0086 49.5177 60.078 47.5627 61.841 45.3457C58.3234 42.5181 38.5969 32.3524 38.7647 27.8527C38.9767 22.1654 51.8541 21.7782 51.8541 21.7782C51.4395 15.219 39.0538 15.848 39.0538 15.848C37.9017 15.3112 38.3131 13.7237 32.1115 13.5338C15.4949 13.025 14.7875 36.729 16.2016 38.8451C16.8374 39.7966 18.9232 13.1048 34.4257 16.5712C36.3013 16.9906 40.6448 18.5962 40.6448 18.5962C40.2885 18.4602 36.0968 20.9503 37.3183 20.5487C44.961 18.0354 49.6777 20.7147 49.0338 20.7656C29.8183 22.2821 37.1882 32.1095 36.3782 31.9025C36.3782 31.9025 27.2581 31.4797 31.6775 39.1343C31.7554 39.2692 32.1115 36.8924 32.1115 36.8924C33.6349 41.6637 46.4333 51.5511 55.6949 51.1518Z" fill="#FBFBFB"/>
<path d="M34.0278 17.4028C34.6379 17.4309 35.4143 17.8185 35.438 18.4152C35.4618 19.012 34.0278 19.6086 34.0278 19.6086C34.0278 19.6086 32.3281 19.0676 32.3645 18.3791C32.3985 17.7371 33.4177 17.3748 34.0278 17.4028Z" fill="#FBFBFB"/>
<path d="M46.4312 55.4443C48.2242 54.9696 49.969 54.3289 51.6431 53.5306C49.0251 51.6072 34.1223 47.0965 34.1223 47.0965C34.1223 47.0965 39.9626 53.5935 46.4312 55.4443Z" fill="#FBFBFB"/>
</g>
<defs>
<clipPath id="clip0_327_457">
<rect width="72" height="72" fill="white" transform="translate(0.5)"/>
</clipPath>
</defs>
</svg>
